<svg xmlns="http://www.w3.org/2000/svg" width="250" height="249" viewBox="0 0 250 249">
<!-- SVG created with Arrow, by QuiverAI (https://quiver.ai) -->
  <path d="m249.8 0.11h-249.6v248.6h249.6v-248.6z" fill="#FEFFFE"/>
  <path d="m24.99 160.6 22.62-71.75h38.02c10.43 0 13.85 5.32 12.96 12.81-0.56 5-5.4 18.41-6.38 21.28-3.5 10.37-11.39 14.21-19.22 14.21h-24.74l-6.78 23.45h-16.48zm52.1-59.35h-17.41l-7.29 23.45h16.23c4.46 0 7.89-1.76 9.79-7.78 1.38-4.61 3.13-9.13 3.32-10.84 0.33-2.88-1.01-4.83-4.64-4.83z" fill="#EDEEEC" fill-opacity=".85"/>
  <path d="m87.24 160.6 21.67-71.75h36.68c10.89 0 14.32 5.04 13.52 12.35-0.55 5.41-5.84 19.8-6.4 21.7-3.42 10.64-11.9 14.25-19.23 14.25h-23.82l-6.55 23.45h-15.87zm51.12-59.4h-17.46l-6.83 23.36h16.32c5.09 0 7.92-2.6 9.41-7.87 1.33-4.66 2.66-8.08 2.94-10.52 0.38-2.92-0.61-4.97-4.38-4.97z" fill="#EDEEEC" fill-opacity=".85"/>
  <path d="m183.3 88.87h40.97c-2.57 10.09-11.49 17.44-23.15 17.44h-36.29l1.43-5.41c2.38-8.12 9.3-12.03 17.04-12.03z" fill="#EDEEEC" fill-opacity=".85"/>
  <path d="m186 113.2h-23.26l-4.88 14.71h20.7l9.15-10.23 2.33 10.23 13.22-0.05-11.85 7.03 3.92 16.39-16.44-9.69-32.32 19.09h39.85c13.45 0 24.43-11.4 24.43-24.05 0-11.89-10.98-23.43-24.85-23.43z" fill="#EDEEEC" fill-opacity=".85"/>
</svg>