<svg xmlns="http://www.w3.org/2000/svg" width="250" height="250" fill="none" viewBox="0 0 250 250">
<!-- SVG created with Arrow, by QuiverAI (https://quiver.ai) -->
  <path d="m247 78.5h-48.72c-13.79 0-23.47 8.82-26.97 20.26l-0.12 0.02h50.38c13.24 0 24.04-9.7 25.43-20.28z" fill="#81B11A" stroke="#C2C2C2" stroke-miterlimit="10" stroke-width=".1417"/>
  <path d="m199.7 107.4h-29.8l-5.5 19.44h25.95l12.49-13.28 3.83 13.28h18.51l-16.64 11.03 4.22 19.57-19.75-10.6-40.55 23.62h46.77c17.95 0 33.22-15.55 33.22-31.66 0-16.12-13.27-31.4-32.75-31.4z" fill="#81B11A" stroke="#81B11A" stroke-miterlimit="10" stroke-width=".2835"/>
  <path d="m78.75 78.5h-47.34l-28.34 91.88h16.8l10.17-29.77h28.22c14.65 0 24.06-8.17 29.21-24.91l4.62-14.8c5.15-16.74-2.06-22.4-13.34-22.4zm-5.84 21.91-6.13 18.44c-1.22 3.84-3.42 5.06-6.3 5.06h-25.17l9.67-28.52h25.17c3.14 0 4.31 1.02 2.76 5.02z" stroke="#C2C2C2" stroke-miterlimit="10" stroke-width=".1417"/>
  <path d="m151.6 78.5h-45.7l-29.36 92h18.62l9.8-29.89h27.29c14.64 0 23.43-8.17 28.59-24.91l4.61-14.8c5.15-16.74-2.57-22.4-13.85-22.4zm-4.71 21.91-5.64 18.44c-1.39 3.84-3.6 5.06-6.47 5.06h-25.17l9.58-28.52h25.17c3.14 0 4.08 1.02 2.53 5.02z" stroke="#C2C2C2" stroke-miterlimit="10" stroke-width=".1417"/>
</svg>